<svg fill="#000000" xmlns="http://www.w3.org/2000/svg"  viewBox="0 0 16 16" width="96px" height="96px"><path d="M 10.304688 2.007813 C 10.140625 1.992188 9.976563 2.007813 9.820313 2.054688 C 9.503906 2.144531 9.222656 2.347656 9.039063 2.640625 L 7.332031 5.359375 L 6.953125 4.539063 L 6.945313 4.542969 C 6.855469 4.261719 6.664063 4.023438 6.390625 3.886719 L 2.898438 2.140625 C 2.042969 1.710938 1 2.355469 1 3.3125 L 1 10.882813 C 1 11.449219 1.324219 11.96875 1.828125 12.222656 L 5.101563 13.859375 C 5.957031 14.285156 7 13.644531 7 12.6875 L 7 10.808594 L 13.105469 13.859375 C 13.957031 14.285156 15 13.640625 15 12.6875 L 15 4.945313 C 15 4.484375 14.738281 4.058594 14.328125 3.851563 L 14.324219 3.851563 L 10.789063 2.136719 C 10.632813 2.0625 10.46875 2.019531 10.304688 2.007813 Z M 2.285156 2.992188 C 2.335938 2.992188 2.394531 3.003906 2.449219 3.03125 L 5.945313 4.78125 C 5.980469 4.800781 6 4.832031 6 4.871094 L 6 12.6875 C 6 12.941406 5.777344 13.078125 5.554688 12.96875 L 2.273438 11.328125 C 2.105469 11.242188 2 11.074219 2 10.882813 L 2 3.3125 C 2 3.121094 2.128906 2.996094 2.285156 2.992188 Z M 10.09375 3.015625 C 10.175781 2.988281 10.265625 2.996094 10.351563 3.039063 L 13.878906 4.75 C 13.933594 4.777344 13.964844 4.824219 13.984375 4.882813 L 10.035156 11.199219 L 7.835938 6.441406 L 9.890625 3.171875 C 9.9375 3.089844 10.011719 3.039063 10.09375 3.015625 Z M 14 6.742188 L 14 12.6875 C 14 12.941406 13.777344 13.078125 13.550781 12.96875 L 10.929688 11.65625 Z M 7 7.019531 L 8.609375 10.496094 L 7 9.691406 Z"/></svg>